<mxfile host="app.diagrams.net" modified="2024-04-18T08:30:01.129Z" agent="Mozilla/5.0 (Windows NT 10.0; Win64; x64) AppleWebKit/537.36 (KHTML, like Gecko) Chrome/122.0.0.0 Safari/537.36 Edg/122.0.0.0" version="24.2.5" etag="xY8tCbNeI8yJGCW4WzZa" type="github">
  <diagram name="第 1 页" id="7UU7bhdBKX8fciu4cv9A">
    <mxGraphModel>
      <root>
        <mxCell id="0" />
        <mxCell id="1" parent="0" />
      </root>
    </mxGraphModel>
  </diagram>
</mxfile>
